<svg xmlns="http://www.w3.org/2000/svg" viewBox="-298 -1524 2905 2905" role="img" aria-label="Samay LLC"><title>Samay LLC</title><g fill="#16161a"><path d="M192 36Q100 36 46.5 11.5Q-7 -13 -7 -54Q-7 -126 107 -192Q213 -253 309 -253Q349 -253 349 -232Q349 -175 222 -118Q206 -111 194.0 -106.5Q182 -102 175 -102Q166 -102 166 -105Q166 -110 175.5 -116.0Q185 -122 192 -125Q262 -156 292 -198Q299 -207 299 -214Q299 -220 291 -220Q213 -220 123 -173Q25 -122 25 -64Q25 -10 179 -10Q297 -10 442 -43Q457 -46 484.0 -54.0Q511 -62 542.5 -73.5Q574 -85 602.5 -100.0Q631 -115 649.0 -132.5Q667 -150 667 -169Q667 -193 637.0 -213.0Q607 -233 560.5 -249.0Q514 -265 462.0 -278.5Q410 -292 366 -302Q343 -308 312.0 -320.5Q281 -333 258.0 -351.5Q235 -370 235 -393Q235 -428 276.5 -460.5Q318 -493 394 -518Q458 -538 517.5 -547.5Q577 -557 628 -557Q693 -557 721.5 -541.5Q750 -526 750 -500Q750 -487 740.0 -466.0Q730 -445 715.0 -428.5Q700 -412 685 -412Q673 -412 673 -419Q673 -424 684.0 -433.0Q695 -442 706.0 -454.0Q717 -466 717 -479Q717 -499 694.5 -506.0Q672 -513 628 -513Q606 -513 576.5 -510.5Q547 -508 515 -502Q486 -497 445.5 -488.0Q405 -479 370 -464Q292 -431 292 -403Q292 -370 396 -346Q498 -323 552.5 -310.0Q607 -297 615 -295Q674 -276 696.5 -249.5Q719 -223 719 -193Q719 -173 705.5 -149.5Q692 -126 664 -106Q623 -75 574.0 -48.5Q525 -22 452 -2Q383 17 318.5 26.5Q254 36 192 36ZM997 3Q965 3 949.0 -12.5Q933 -28 928.5 -52.0Q924 -76 925 -100Q910 -80 888.0 -56.5Q866 -33 840.0 -16.0Q814 1 787 1Q767 1 754.0 -8.5Q741 -18 741 -39Q741 -74 763.5 -113.0Q786 -152 821.0 -187.5Q856 -223 896.0 -245.0Q936 -267 971 -267Q981 -267 999.0 -263.0Q1017 -259 1031.5 -251.0Q1046 -243 1046 -229Q1046 -222 1037.0 -221.0Q1028 -220 1024 -215Q995 -180 995 -102Q995 -92 996.0 -75.0Q997 -58 1003.5 -45.0Q1010 -32 1024 -32Q1045 -32 1069.0 -50.0Q1093 -68 1117.0 -93.5Q1141 -119 1161 -140Q1163 -143 1165 -143Q1170 -143 1173.5 -137.5Q1177 -132 1173 -128Q1149 -100 1126.5 -78.0Q1104 -56 1080 -36Q1034 3 997 3ZM841 -45Q864 -58 887.5 -86.0Q911 -114 932.5 -150.0Q954 -186 969 -222Q945 -222 915.0 -204.5Q885 -187 858.0 -160.5Q831 -134 813.5 -105.5Q796 -77 796 -54Q796 -35 811 -35Q822 -35 841 -45ZM1128 5Q1119 5 1115.0 -3.5Q1111 -12 1111 -19Q1111 -27 1116.5 -38.0Q1122 -49 1126 -57Q1138 -84 1149.5 -115.5Q1161 -147 1170.0 -176.0Q1179 -205 1181 -221Q1183 -233 1200.0 -239.5Q1217 -246 1228 -246Q1234 -246 1239.0 -243.5Q1244 -241 1244 -234Q1244 -229 1238.0 -212.5Q1232 -196 1224.0 -175.5Q1216 -155 1209.0 -137.5Q1202 -120 1199 -113Q1209 -124 1227.5 -146.5Q1246 -169 1269.0 -193.5Q1292 -218 1314.0 -235.5Q1336 -253 1353 -253Q1380 -253 1380 -229Q1380 -196 1370.0 -158.5Q1360 -121 1355 -87Q1365 -99 1382.0 -118.5Q1399 -138 1418.5 -158.5Q1438 -179 1457.5 -193.0Q1477 -207 1492 -207Q1517 -207 1517 -182Q1517 -158 1511.0 -134.5Q1505 -111 1505 -87Q1505 -73 1508.5 -57.0Q1512 -41 1531 -41Q1559 -41 1584.5 -55.5Q1610 -70 1632.5 -91.5Q1655 -113 1674 -133H1675Q1678 -133 1683.0 -129.0Q1688 -125 1683 -118Q1659 -88 1627.5 -61.0Q1596 -34 1563.5 -18.5Q1531 -3 1504 -6Q1467 -11 1455.5 -34.5Q1444 -58 1444 -100Q1444 -108 1444.5 -116.0Q1445 -124 1445 -132V-137Q1445 -149 1440 -149Q1436 -149 1424 -137Q1408 -120 1393.0 -97.0Q1378 -74 1363.5 -51.5Q1349 -29 1336.0 -14.5Q1323 0 1311 0Q1298 0 1291.5 -7.5Q1285 -15 1285 -25Q1285 -31 1286 -34Q1292 -58 1299.5 -86.0Q1307 -114 1312.5 -139.0Q1318 -164 1318 -178Q1318 -188 1314 -191Q1297 -193 1276.5 -173.0Q1256 -153 1233.5 -122.0Q1211 -91 1188.0 -58.5Q1165 -26 1143 -3Q1140 0 1136.5 2.5Q1133 5 1128 5ZM1867 3Q1835 3 1819.0 -12.5Q1803 -28 1798.5 -52.0Q1794 -76 1795 -100Q1780 -80 1758.0 -56.5Q1736 -33 1710.0 -16.0Q1684 1 1657 1Q1637 1 1624.0 -8.5Q1611 -18 1611 -39Q1611 -74 1633.5 -113.0Q1656 -152 1691.0 -187.5Q1726 -223 1766.0 -245.0Q1806 -267 1841 -267Q1851 -267 1869.0 -263.0Q1887 -259 1901.5 -251.0Q1916 -243 1916 -229Q1916 -222 1907.0 -221.0Q1898 -220 1894 -215Q1865 -180 1865 -102Q1865 -92 1866.0 -75.0Q1867 -58 1873.5 -45.0Q1880 -32 1894 -32Q1915 -32 1939.0 -50.0Q1963 -68 1987.0 -93.5Q2011 -119 2031 -140Q2033 -143 2035 -143Q2040 -143 2043.5 -137.5Q2047 -132 2043 -128Q2019 -100 1996.5 -78.0Q1974 -56 1950 -36Q1904 3 1867 3ZM1711 -45Q1734 -58 1757.5 -86.0Q1781 -114 1802.5 -150.0Q1824 -186 1839 -222Q1815 -222 1785.0 -204.5Q1755 -187 1728.0 -160.5Q1701 -134 1683.5 -105.5Q1666 -77 1666 -54Q1666 -35 1681 -35Q1692 -35 1711 -45ZM1833 415Q1800 415 1766.0 404.0Q1732 393 1709.0 368.5Q1686 344 1686 306Q1686 263 1713.0 224.0Q1740 185 1784.5 152.0Q1829 119 1883.5 92.0Q1938 65 1994.0 44.5Q2050 24 2100.0 11.0Q2150 -2 2185 -7Q2192 -31 2199.0 -62.0Q2206 -93 2212.5 -124.5Q2219 -156 2223 -180Q2211 -158 2192.0 -129.0Q2173 -100 2149.0 -74.0Q2125 -48 2100.5 -30.5Q2076 -13 2053 -13Q2026 -13 2016.5 -32.5Q2007 -52 2007 -75Q2007 -92 2014.5 -115.0Q2022 -138 2034.5 -159.5Q2047 -181 2064.5 -195.5Q2082 -210 2101 -210Q2107 -210 2116.5 -207.0Q2126 -204 2126 -196Q2126 -192 2116.5 -179.0Q2107 -166 2095.0 -149.0Q2083 -132 2073.5 -114.5Q2064 -97 2064 -82Q2064 -74 2066.0 -65.0Q2068 -56 2079 -56Q2096 -56 2125.0 -83.0Q2154 -110 2185.0 -154.5Q2216 -199 2239 -253Q2241 -265 2254.0 -268.5Q2267 -272 2277 -272Q2283 -272 2294.5 -269.0Q2306 -266 2306 -258Q2306 -243 2299.0 -209.0Q2292 -175 2282.0 -135.5Q2272 -96 2262.5 -61.0Q2253 -26 2248 -8Q2258 -8 2274.5 -6.5Q2291 -5 2304.0 1.0Q2317 7 2317 21Q2317 26 2314 26Q2313 26 2311.0 25.5Q2309 25 2306 25Q2286 15 2263 15Q2258 15 2253.0 15.0Q2248 15 2243 16Q2222 83 2185.0 153.5Q2148 224 2096.0 283.0Q2044 342 1978.5 378.5Q1913 415 1833 415ZM1844 394Q1899 394 1946.0 370.0Q1993 346 2031.5 306.0Q2070 266 2100.0 217.0Q2130 168 2151.0 116.0Q2172 64 2183 17Q2153 21 2108.5 33.5Q2064 46 2014.0 65.5Q1964 85 1915.0 110.0Q1866 135 1826.0 165.5Q1786 196 1762.0 230.0Q1738 264 1738 301V317Q1738 341 1754.5 358.5Q1771 376 1795.5 385.0Q1820 394 1844 394Z"/><path d="M149.76307598413183 0.0V-1490.0H416.7952395483674V-224.87421422032347H1075.118462007934V0.0ZM2167.9230759841316 0.0V-1490.0H2434.9552395483674V-224.87421422032347H3093.2784620079337V0.0ZM4763.119816905706 20.0Q4567.44029295087 20.0 4413.260768996033 -70.8801647848642Q4259.081245041196 -161.7603295697284 4170.341574610924 -332.9003661885871Q4081.6019041806526 -504.04040280744584 4081.6019041806526 -744.0Q4081.6019041806526 -985.3195605736954 4170.881519682636 -1156.6395788831248Q4260.1611351846195 -1327.9595971925542 4414.520640830027 -1418.979798596277Q4568.880146475434 -1510.0 4763.119816905706 -1510.0Q4885.47886481538 -1510.0 4992.098242294782 -1475.380164784864Q5098.717619774184 -1440.7603295697284 5181.957290204455 -1374.2006408300274Q5265.196960634727 -1307.6409520903264 5319.236905706439 -1211.921483063778Q5373.27685077815 -1116.2020140372292 5391.117070491303 -994.0027464144034H5121.925126640219Q5109.524760451633 -1060.563808361306 5077.864064693316 -1111.7245041196215Q5046.203368935001 -1162.885199877937 4999.162508391822 -1198.5656393042418Q4952.121647848642 -1234.2460787305463 4893.220823924321 -1252.44626182484Q4834.32 -1270.6464449191333 4767.439377479402 -1270.6464449191333Q4645.318169057064 -1270.6464449191333 4550.816795849862 -1209.3057674702472Q4456.31542264266 -1147.965090021361 4403.034433933475 -1030.5036618858712Q4349.75344522429 -913.0422337503815 4349.75344522429 -744.0Q4349.75344522429 -573.4380225816295 4403.7144156240465 -456.1565761367104Q4457.675386023802 -338.87512969179124 4551.8167958498625 -279.11434238632893Q4645.958205675923 -219.35355508086664 4766.719450717119 -219.35355508086664Q4833.600073237717 -219.35355508086664 4892.320915471468 -237.87375648458953Q4951.041757705218 -256.39395788831246 4998.442581629539 -291.7543790051877Q5045.84340555386 -327.1148001220629 5077.864064693316 -378.5955141898078Q5109.8847238327735 -430.07622825755266 5122.6450534025025 -495.9972535855966H5391.836997253586Q5377.15655782728 -388.83655782728107 5326.536264876411 -295.5968873970095Q5275.915971925541 -202.35721696673787 5194.296136710405 -131.15794934391212Q5112.67630149527 -59.958681721086364 5003.89714372902 -19.979340860543182Q4895.11798596277 20.0 4763.119816905706 20.0Z" transform="translate(771.7 286.6) scale(0.0955)"/></g></svg>